<?xml version="1.0" encoding="utf-8"?>
<svg viewBox="0 0 70 70" xmlns="http://www.w3.org/2000/svg">
  <path style="stroke-width: 4px; stroke: rgb(80, 130, 210); fill: rgb(255, 255, 255);" d="M 29.756 5.891 L 51.935 5.891 C 54.144 5.891 55.935 7.682 55.935 9.891 L 55.935 60.109 C 55.935 62.318 54.144 64.109 51.935 64.109 L 18.066 64.109 C 15.857 64.109 14.066 62.318 14.066 60.109 L 14.066 22.121"/>
  <path style="stroke-width: 4px; stroke: rgb(80, 130, 210); fill: rgb(255, 255, 255);" d="M 29.749 5.891 L 29.755 5.891 L 29.755 18.121 C 29.755 20.33 27.964 22.121 25.755 22.121 L 14.065 22.106 L 14.065 22.089 C 14.065 19.88 27.54 5.891 29.749 5.891"/>
  <g transform="matrix(1, 0, 0, 1, -0.788001, -18.551031)">
    <rect style="fill: rgb(80, 130, 210);" x="25.788" y="47.547" width="20" height="4" rx="2" ry="2"/>
    <rect style="fill: rgb(80, 130, 210);" x="25.881" y="47.547" width="20" height="4" rx="2" ry="2" transform="matrix(0, 1, -1, 0, 85.334999, 21.674061)"/>
  </g>
</svg>