<?xml version="1.0" encoding="utf-8"?>
<svg viewBox="0 0 100 100" xmlns="http://www.w3.org/2000/svg">
  <g transform="matrix(1.412078, 0, 0, 1.412078, -26.297087, -17.541298)" style="">
    <path d="M 81.684 44.711 C 78.275 48.121 73.269 48.961 69.071 47.235 L 61.689 54.617 L 55.383 48.311 L 62.765 40.929 C 61.039 36.731 61.88 31.726 65.289 28.316 C 68.526 25.08 78.988 21.362 77.255 25.547 L 73.12 29.682 C 71.727 31.075 71.728 33.334 73.121 34.727 L 75.273 36.88 C 76.666 38.273 78.925 38.273 80.318 36.88 L 84.453 32.745 C 88.685 30.992 84.921 41.475 81.684 44.711 Z M 42.842 73.464 C 42.145 74.161 41.016 74.161 40.32 73.465 L 36.536 69.68 C 35.839 68.984 35.839 67.855 36.536 67.158 L 48.311 55.383 L 54.617 61.689 Z" style="fill: none; stroke: rgb(255, 255, 255); stroke-width: 3.54088px;"/>
    <g transform="matrix(0.707107, -0.707107, 0.707107, 0.707107, -27.196285, 41.025398)"/>
  </g>
  <path d="M 5.237 44.166 L 15.331 34.072 L 15.35 34.092 L 5.207 44.235 C 4.953 44.489 4.757 44.781 4.62 45.092 C 4.758 44.754 4.963 44.439 5.237 44.166 Z M 35.509 13.893 C 36.612 12.791 38.401 12.791 39.504 13.893 L 48.788 23.179 C 49.638 24.029 49.833 25.287 49.373 26.324 C 49.795 25.3 49.59 24.08 48.759 23.248 L 39.474 13.963 C 38.371 12.86 36.584 12.86 35.479 13.963 L 25.337 24.106 L 25.317 24.086 Z M 48.788 27.173 L 18.516 57.445 C 17.413 58.548 15.626 58.548 14.523 57.445 L 5.237 48.16 C 4.408 47.331 4.202 46.113 4.62 45.092 C 4.164 46.127 4.359 47.381 5.207 48.229 L 14.493 57.514 C 15.596 58.617 17.384 58.617 18.487 57.514 L 28.629 47.371 L 67.342 86.083 C 68.444 87.184 70.234 87.186 71.336 86.083 L 77.328 80.092 C 78.429 78.989 78.429 77.2 77.328 76.097 L 38.616 37.385 L 48.759 27.242 C 49.03 26.971 49.235 26.657 49.373 26.324 C 49.236 26.632 49.041 26.92 48.788 27.173 Z M 11.426 30.168 L 15.331 34.072 L 25.317 24.086 L 21.412 20.181 C 20.308 19.079 18.52 19.08 17.418 20.181 L 11.426 26.173 C 10.323 27.276 10.323 29.063 11.426 30.168 Z" style="fill: none; stroke: rgb(255, 255, 255); stroke-width: 5px;"/>
</svg>