<?xml version="1.0" encoding="utf-8"?>
<svg viewBox="0 0 100 100" xmlns="http://www.w3.org/2000/svg">
  <g transform="matrix(2.13309, 0, 0, 2.13309, 36.851376, 34.586189)" style=""/>
  <path d="M 72.741 30.692 C 90.154 34.613 91.589 35.992 91.589 37.726 L 91.589 84.359 C 91.589 86.091 90.184 87.496 88.45 87.496 L 11.547 87.496 C 9.815 87.496 8.41 86.091 8.41 84.359 L 8.41 37.726 C 8.41 35.992 9.843 34.613 27.256 30.692" style="fill: none; stroke: rgb(255, 255, 255); stroke-width: 5px;"/>
  <path d="M 8.885 67.132 L 49.618 40.482 L 91.115 67.132" style="fill: none; stroke: rgb(255, 255, 255); stroke-width: 5px;" transform="matrix(-1, 0, 0, -1, 99.999996, 107.614002)"/>
  <path d="M 69.174 55.4 L 33.437 55.4 C 31.994 55.4 30.825 53.996 30.825 52.262 L 30.825 11.094 C 30.825 9.362 31.994 7.957 33.437 7.957 L 69.174 7.957" style="fill: none; stroke: rgb(255, 255, 255); stroke-width: 5px;" transform="matrix(0, 1, -1, 0, 81.678003, -18.321002)"/>
  <rect style="fill: rgb(255, 255, 255);" x="33.866" y="19.525" width="28.674" height="5.249" rx="1" ry="1"/>
  <rect style="fill: rgb(255, 255, 255);" x="33.866" y="30.024" width="21.369" height="5.249" rx="1" ry="1"/>
  <rect style="fill: rgb(255, 255, 255);" x="33.866" y="40.523" width="32.033" height="5.249" rx="1" ry="1"/>
</svg>